M48
; DRILL file {KiCad 7.0.5-7.0.5~ubuntu22.04.1} date Sun 02 Jul 2023 20:15:11 BST
; FORMAT={-:-/ absolute / inch / decimal}
; #@! TF.CreationDate,2023-07-02T20:15:11+01:00
; #@! TF.GenerationSoftware,Kicad,Pcbnew,7.0.5-7.0.5~ubuntu22.04.1
; #@! TF.FileFunction,NonPlated,1,2,NPTH
FMAT,2
INCH
; #@! TA.AperFunction,NonPlated,NPTH,ComponentDrill
T1C0.0787
; #@! TA.AperFunction,NonPlated,NPTH,ComponentDrill
T2C0.1000
; #@! TA.AperFunction,NonPlated,NPTH,ComponentDrill
T3C0.1083
%
G90
G05
T1
X-0.0453Y2.3343
X0.5452Y2.3343
X1.6614Y2.7778
X2.1339Y2.7778
T2
X-0.1776Y0.5787
X-0.15Y3.5
X-0.15Y3.0
X-0.1146Y2.0774
X0.3146Y2.0774
X0.3776Y0.5787
X0.6Y1.075
X0.6Y0.575
X0.6Y2.0258
X0.6Y1.3258
X0.65Y3.5
X0.65Y3.0
X0.7894Y0.2008
X0.8547Y2.6909
X1.15Y3.4008
X1.4Y1.075
X1.4Y0.575
X1.4Y2.0258
X1.4Y1.3258
X1.4453Y2.6909
X1.6524Y2.9774
X2.0124Y1.4476
X2.0124Y0.85
X2.1024Y2.9774
T3
X-0.1917Y3.75
X-0.1917Y0.0886
X2.0917Y3.75
X2.0917Y0.0886
T0
M30
