M48
; DRILL file {KiCad 7.0.5-7.0.5~ubuntu22.04.1} date Sun 02 Jul 2023 20:15:11 BST
; FORMAT={-:-/ absolute / inch / decimal}
; #@! TF.CreationDate,2023-07-02T20:15:11+01:00
; #@! TF.GenerationSoftware,Kicad,Pcbnew,7.0.5-7.0.5~ubuntu22.04.1
; #@! TF.FileFunction,Plated,1,2,PTH
FMAT,2
INCH
; #@! TA.AperFunction,Plated,PTH,ViaDrill
T1C0.0157
; #@! TA.AperFunction,Plated,PTH,ComponentDrill
T2C0.0394
%
G90
G05
T1
X0.7583Y3.6386
X1.1882Y0.3004
X1.2583Y0.2386
X1.4882Y0.3004
X1.6583Y0.4886
X1.7083Y0.2386
X1.8Y0.7008
X2.0583Y0.4886
T2
X-0.1Y1.4008
X-0.1Y1.2008
X0.0Y3.8
X0.0Y3.7
X0.0Y1.4008
X0.0Y1.2008
X0.1Y2.3
X0.1Y3.8
X0.1Y3.7
X0.1Y3.0
X0.1Y1.4008
X0.1Y1.2008
X0.1Y0.3508
X0.1Y0.2508
X0.1Y0.1508
X0.1Y0.0508
X0.2Y2.3
X0.2Y3.8
X0.2Y3.7
X0.2Y3.0
X0.2Y1.4008
X0.2Y1.2008
X0.3Y2.3
X0.3Y3.8
X0.3Y3.7
X0.3Y3.0
X0.3Y1.4008
X0.3Y1.2008
X0.4Y2.3
X0.4Y3.8
X0.4Y3.7
X0.4Y3.0
X0.5Y3.8
X0.5Y3.7
X0.6Y3.8
X0.6Y3.7
X0.7Y3.8
X0.7Y3.7
X0.8Y0.575
X0.8Y3.8
X0.8Y3.7
X0.8Y1.3258
X0.9Y0.575
X0.9Y3.8
X0.9Y3.7
X0.9Y2.9008
X0.9Y2.2008
X0.9Y1.3258
X1.0Y0.575
X1.0Y3.8
X1.0Y3.7
X1.0Y2.9008
X1.0Y2.2008
X1.0Y1.3258
X1.1Y0.575
X1.1Y3.8
X1.1Y3.7
X1.1Y2.9008
X1.1Y2.2008
X1.1Y1.3258
X1.2Y0.575
X1.2Y3.8
X1.2Y3.7
X1.2Y2.9008
X1.2Y2.2008
X1.2Y1.3258
X1.3Y3.8
X1.3Y3.7
X1.3Y2.9008
X1.3Y2.2008
X1.4Y3.8
X1.4Y3.7
X1.4Y2.9008
X1.4Y2.2008
X1.5Y3.8
X1.5Y3.7
X1.6Y3.8
X1.6Y3.7
X1.625Y3.325
X1.6476Y2.4766
X1.7Y3.8
X1.7Y3.7
X1.7Y1.5
X1.7Y1.4
X1.7Y1.3
X1.7Y1.2
X1.7Y1.1
X1.7Y1.0
X1.7Y0.9
X1.7Y0.8
X1.725Y3.325
X1.7476Y2.4766
X1.8Y3.8
X1.8Y3.7
X1.8Y2.3008
X1.8Y2.2008
X1.8Y2.1008
X1.8Y2.0008
X1.8Y1.9008
X1.8Y1.8008
X1.825Y3.325
X1.8476Y2.4766
X1.9Y3.8
X1.9Y3.7
X1.9Y2.3008
X1.9Y2.2008
X1.9Y2.1008
X1.9Y2.0008
X1.9Y1.9008
X1.9Y1.8008
X1.925Y3.325
X1.9476Y2.4766
X2.025Y3.325
X2.0476Y2.4766
X2.1Y2.3008
X2.1Y2.2008
X2.1Y2.1008
X2.1Y2.0008
X2.1Y1.9008
X2.1Y1.8008
X2.125Y3.325
X2.1476Y2.4766
T0
M30
